<?xml version="1.0" encoding="utf-8"?>
<!-- Generator: Adobe Illustrator 19.1.0, SVG Export Plug-In . SVG Version: 6.00 Build 0)  -->
<svg version="1.1" id="Layer_1" xmlns="http://www.w3.org/2000/svg" xmlns:xlink="http://www.w3.org/1999/xlink" x="0px" y="0px"
	 viewBox="0 0 250 75" style="enable-background:new 0 0 250 75;" xml:space="preserve">
<style type="text/css">
	.st0{fill:#BF3100;}
	.st1{fill:#8EA604;}
	.st2{fill:#EC5B05;}
</style>
<g>
	<g>
		<g>
			<path class="st0" d="M57.355,12.124c-1.42-2.904-3.459-4.753-5.826-5.32c-2.453-0.814-8.664-2.656-15.75-3.077
				c-7.487-0.445-13.626,0.685-16.016,1.219c-4.983,0.708-8.93,6.984-9.405,14.994c-0.215,3.626,0.338,7.187,1.559,10.027
				c1.334,3.102,3.396,5.201,5.815,5.921c2.299,0.822,8.316,2.72,15.949,3.173c7.246,0.43,13.761-0.724,16.17-1.226
				c0.401-0.057,0.797-0.151,1.186-0.28c0.005-0.002,0.01-0.003,0.014-0.005c1.892-0.63,3.63-2.092,5.048-4.288
				c1.784-2.764,2.896-6.464,3.131-10.42S58.8,15.079,57.355,12.124z M41.502,32.395c0.353,0.722,0.745,1.379,1.17,1.967
				c-0.779,0.077-1.602,0.143-2.46,0.194c-2.931-0.266-5.856-5.688-5.412-13.166c0.44-7.405,3.922-12.417,6.846-12.434
				c0.873,0.155,1.708,0.323,2.495,0.497c-0.488,0.531-0.951,1.133-1.384,1.803c-1.784,2.764-2.897,6.464-3.132,10.42
				S40.057,29.44,41.502,32.395z M23.048,20.693c0.448-7.544,4.054-12.606,7.011-12.43l0.006-0.095
				c1.47-0.059,3.051-0.065,4.713,0.01c-0.344,0.423-0.675,0.878-0.991,1.369c-1.98,3.067-3.214,7.178-3.476,11.578
				c-0.261,4.399,0.478,8.628,2.081,11.908c0.259,0.53,0.537,1.026,0.832,1.491c-1.664-0.122-3.236-0.315-4.691-0.547l0.007-0.11
				C25.582,33.69,22.6,28.237,23.048,20.693z M19.041,31.584c-1.11-0.315-2.2-1.553-2.992-3.395
				c-0.949-2.208-1.376-5.044-1.201-7.984c0.362-6.099,3.182-10.515,5.588-10.813c0.074-0.009,0.147-0.022,0.22-0.038
				c0.326-0.074,0.738-0.162,1.225-0.256c-1.888,3.039-3.067,7.045-3.321,11.327c-0.255,4.29,0.444,8.415,1.965,11.658
				c-0.538-0.172-0.988-0.327-1.336-0.452C19.14,31.614,19.091,31.598,19.041,31.584z M49.562,33.295
				c-0.101,0.023-0.239,0.053-0.413,0.09c-0.129,0.016-0.257,0.024-0.383,0.016c-1.157-0.069-2.332-1.155-3.225-2.981
				c-1.094-2.238-1.614-5.327-1.427-8.476c0.379-6.377,3.467-10.975,5.975-10.826c0.082,0.005,0.165,0.016,0.247,0.031
				c0.336,0.113,0.562,0.193,0.661,0.229c0.846,0.43,1.658,1.373,2.317,2.72c1.094,2.238,1.614,5.327,1.427,8.476
				C54.403,28.291,51.887,32.574,49.562,33.295z"/>
		</g>
		<g>
			<path class="st1" d="M49.043,44.914c-1.42-2.904-3.459-4.753-5.826-5.32c-2.453-0.814-8.664-2.656-15.75-3.077
				c-7.487-0.445-13.626,0.685-16.016,1.219c-4.983,0.708-8.93,6.984-9.405,14.994c-0.215,3.626,0.338,7.187,1.559,10.027
				c1.334,3.102,3.396,5.201,5.815,5.921c2.299,0.822,8.316,2.72,15.949,3.173c7.246,0.43,13.761-0.724,16.17-1.226
				c0.401-0.057,0.797-0.151,1.186-0.28c0.005-0.002,0.01-0.003,0.014-0.005c1.892-0.63,3.63-2.092,5.048-4.288
				c1.784-2.764,2.896-6.464,3.131-10.42C51.154,51.676,50.488,47.87,49.043,44.914z M33.189,65.186
				c0.353,0.722,0.745,1.379,1.17,1.967c-0.779,0.077-1.602,0.143-2.46,0.194c-2.931-0.266-5.856-5.688-5.412-13.166
				c0.44-7.405,3.922-12.417,6.846-12.434c0.873,0.155,1.708,0.323,2.495,0.497c-0.488,0.531-0.951,1.133-1.384,1.803
				c-1.784,2.764-2.897,6.464-3.132,10.42S31.744,62.23,33.189,65.186z M14.736,53.483c0.448-7.544,4.054-12.606,7.011-12.43
				l0.006-0.095c1.47-0.059,3.051-0.065,4.713,0.01c-0.344,0.423-0.675,0.878-0.991,1.369c-1.98,3.067-3.214,7.178-3.476,11.578
				c-0.261,4.399,0.478,8.628,2.081,11.908c0.259,0.53,0.537,1.026,0.832,1.491c-1.664-0.122-3.236-0.315-4.691-0.547l0.007-0.11
				C17.269,66.48,14.287,61.027,14.736,53.483z M10.729,64.375c-1.11-0.315-2.2-1.553-2.992-3.395
				c-0.949-2.208-1.376-5.044-1.201-7.984c0.362-6.099,3.182-10.515,5.588-10.813c0.074-0.009,0.147-0.022,0.22-0.038
				c0.326-0.074,0.738-0.162,1.225-0.256c-1.888,3.039-3.067,7.045-3.321,11.327c-0.255,4.29,0.444,8.415,1.965,11.658
				c-0.538-0.172-0.988-0.327-1.336-0.452C10.827,64.405,10.778,64.389,10.729,64.375z M41.25,66.085
				c-0.101,0.023-0.239,0.053-0.413,0.09c-0.129,0.016-0.257,0.024-0.383,0.016c-1.157-0.069-2.332-1.155-3.225-2.981
				c-1.094-2.238-1.614-5.327-1.427-8.476c0.379-6.377,3.467-10.975,5.975-10.826c0.082,0.005,0.165,0.016,0.247,0.031
				c0.336,0.113,0.562,0.193,0.661,0.229c0.846,0.43,1.658,1.373,2.317,2.72c1.094,2.238,1.614,5.327,1.427,8.476
				C46.09,61.081,43.574,65.365,41.25,66.085z"/>
		</g>
		<path class="st2" d="M72.118,38.196c-1.42-2.904-3.459-4.753-5.826-5.32c-1.603-0.532-4.812-1.503-8.82-2.229
			c-0.398,0.939-0.856,1.817-1.371,2.616c-1.418,2.196-3.157,3.659-5.048,4.288c-0.005,0.002-0.01,0.003-0.014,0.005
			c-0.39,0.129-0.785,0.223-1.186,0.28c-0.643,0.134-1.58,0.314-2.743,0.498c-0.377,0.866-0.708,1.779-0.987,2.731
			c1.134,0.925,2.125,2.221,2.922,3.85c0.224,0.457,0.426,0.937,0.612,1.433c0.704-6.787,3.979-11.302,6.753-11.318
			c0.873,0.155,1.708,0.323,2.495,0.497c-0.488,0.531-0.951,1.133-1.384,1.803c-1.784,2.764-2.897,6.464-3.132,10.42
			s0.431,7.762,1.876,10.718c0.353,0.722,0.745,1.379,1.17,1.967c-0.779,0.077-1.602,0.143-2.46,0.194
			c-1.534-0.139-3.065-1.693-4.114-4.212c-0.289,3.237-1.169,6.267-2.521,8.71c0.035,0.002,0.069,0.005,0.104,0.007
			c7.246,0.43,13.761-0.724,16.17-1.226c0.401-0.057,0.797-0.151,1.186-0.28c0.005-0.002,0.01-0.003,0.014-0.005
			c1.892-0.63,3.63-2.092,5.048-4.288c1.784-2.764,2.896-6.464,3.131-10.42C74.229,44.958,73.562,41.151,72.118,38.196z
			 M64.325,59.367c-0.101,0.023-0.239,0.053-0.413,0.09c-0.129,0.016-0.257,0.024-0.383,0.016c-1.157-0.069-2.332-1.155-3.225-2.981
			c-1.094-2.238-1.614-5.327-1.427-8.476c0.379-6.377,3.467-10.975,5.975-10.826c0.082,0.005,0.165,0.016,0.247,0.031
			c0.336,0.113,0.562,0.193,0.661,0.229c0.846,0.43,1.658,1.373,2.317,2.72c1.094,2.238,1.614,5.327,1.427,8.476
			C69.165,54.363,66.649,58.646,64.325,59.367z"/>
	</g>
	<g>
		<path class="st0" d="M128.284,49.471c0,1.882-0.383,3.568-1.149,5.056c-0.766,1.489-1.796,2.747-3.086,3.776
			c-1.292,1.029-2.813,1.817-4.563,2.364c-1.751,0.548-3.612,0.821-5.581,0.821H91.645v-46.62h24.032
			c1.619,0,3.086,0.351,4.399,1.051c1.313,0.701,2.429,1.609,3.349,2.725c0.919,1.116,1.63,2.387,2.134,3.808
			c0.503,1.423,0.755,2.856,0.755,4.301c0,2.277-0.581,4.41-1.74,6.402c-1.161,1.992-2.813,3.47-4.957,4.432
			c2.67,0.788,4.782,2.222,6.336,4.301C127.506,43.966,128.284,46.494,128.284,49.471z M98.999,21.236v13.723h13.526
			c0.919,0,1.761-0.174,2.528-0.525c0.765-0.35,1.445-0.821,2.036-1.412c0.591-0.591,1.05-1.302,1.379-2.134
			c0.328-0.831,0.492-1.75,0.492-2.758c0-2.013-0.569-3.666-1.707-4.957c-1.139-1.291-2.583-1.937-4.334-1.937H98.999z
			 M120.733,48.092c0-0.962-0.164-1.882-0.492-2.757c-0.328-0.875-0.766-1.642-1.313-2.298c-0.548-0.657-1.215-1.182-2.003-1.576
			c-0.788-0.394-1.641-0.591-2.561-0.591H98.999v14.248h14.905c0.962,0,1.86-0.186,2.692-0.558c0.831-0.372,1.554-0.875,2.167-1.51
			c0.612-0.634,1.094-1.379,1.445-2.233C120.558,49.963,120.733,49.055,120.733,48.092z"/>
		<path class="st0" d="M141.613,62.143c-1.664,0-3.207-0.274-4.629-0.821c-1.423-0.547-2.649-1.302-3.677-2.265
			c-1.029-0.962-1.838-2.101-2.429-3.415c-0.591-1.313-0.886-2.735-0.886-4.268c0-1.619,0.35-3.086,1.05-4.4
			c0.7-1.313,1.696-2.451,2.987-3.414c1.291-0.962,2.824-1.707,4.597-2.232c1.773-0.525,3.731-0.788,5.876-0.788
			c1.619,0,3.217,0.143,4.793,0.427c1.576,0.285,2.998,0.668,4.268,1.149v-2.364c0-2.538-0.722-4.519-2.167-5.942
			c-1.445-1.422-3.524-2.134-6.238-2.134c-1.839,0-3.644,0.339-5.417,1.018c-1.773,0.679-3.601,1.653-5.483,2.922l-2.232-4.597
			c4.421-2.976,9.017-4.465,13.789-4.465c4.727,0,8.404,1.205,11.03,3.611c2.626,2.408,3.94,5.867,3.94,10.375v12.41
			c0,0.832,0.153,1.423,0.46,1.773c0.305,0.351,0.831,0.548,1.576,0.591v6.172c-0.7,0.132-1.346,0.219-1.937,0.263
			c-0.591,0.043-1.127,0.065-1.608,0.065c-1.402-0.088-2.463-0.46-3.185-1.116c-0.722-0.657-1.171-1.532-1.346-2.626l-0.197-2.167
			c-1.533,2.014-3.426,3.557-5.68,4.629C146.613,61.607,144.195,62.143,141.613,62.143z M143.583,56.825
			c1.751,0,3.403-0.317,4.957-0.953c1.554-0.634,2.768-1.52,3.644-2.659c0.919-0.788,1.379-1.619,1.379-2.495v-4.531
			c-1.226-0.481-2.528-0.853-3.907-1.116c-1.379-0.263-2.725-0.394-4.038-0.394c-2.584,0-4.695,0.558-6.337,1.674
			c-1.642,1.116-2.462,2.594-2.462,4.432c0,1.707,0.634,3.142,1.904,4.301C139.993,56.245,141.613,56.825,143.583,56.825z"/>
		<path class="st0" d="M183.57,59.714c-0.963,0.438-2.244,0.93-3.841,1.477c-1.599,0.547-3.339,0.821-5.22,0.821
			c-1.139,0-2.2-0.154-3.184-0.46c-0.985-0.305-1.861-0.765-2.626-1.378c-0.766-0.613-1.369-1.412-1.806-2.397
			c-0.438-0.985-0.657-2.178-0.657-3.579V32.727h-4.596v-5.581h4.596V15.852h7.223v11.294h7.486v5.581h-7.486V51.9
			c0,1.226,0.35,2.113,1.051,2.659c0.7,0.548,1.553,0.821,2.561,0.821c1.006,0,1.97-0.174,2.889-0.525
			c0.919-0.35,1.597-0.634,2.035-0.853L183.57,59.714z"/>
		<path class="st0" d="M181.862,44.283c0-2.407,0.416-4.683,1.247-6.829c0.831-2.144,2.024-4.027,3.579-5.647
			c1.553-1.619,3.424-2.899,5.614-3.841c2.188-0.941,4.64-1.412,7.354-1.412c3.546,0,6.599,0.778,9.16,2.331
			c2.561,1.554,4.475,3.623,5.745,6.205l-7.026,2.233c-0.832-1.445-1.948-2.571-3.349-3.382c-1.402-0.81-2.955-1.215-4.662-1.215
			c-1.445,0-2.79,0.285-4.038,0.854c-1.247,0.569-2.331,1.369-3.25,2.397c-0.919,1.029-1.642,2.244-2.167,3.644
			c-0.525,1.401-0.788,2.955-0.788,4.662c0,1.664,0.273,3.207,0.821,4.629c0.547,1.423,1.291,2.659,2.232,3.71
			c0.941,1.05,2.036,1.871,3.283,2.462c1.247,0.591,2.571,0.887,3.973,0.887c0.875,0,1.75-0.12,2.626-0.361
			c0.875-0.24,1.674-0.579,2.397-1.018c0.722-0.437,1.356-0.941,1.904-1.51c0.547-0.569,0.952-1.182,1.215-1.839l7.092,2.101
			c-1.139,2.583-3.043,4.695-5.713,6.336c-2.671,1.642-5.822,2.463-9.455,2.463c-2.671,0-5.1-0.482-7.289-1.445
			c-2.189-0.962-4.06-2.266-5.614-3.907c-1.554-1.642-2.757-3.535-3.611-5.679C182.289,48.968,181.862,46.691,181.862,44.283z"/>
		<path class="st0" d="M247.588,61.487h-7.223V42.248c0-3.152-0.569-5.483-1.707-6.993c-1.139-1.51-2.758-2.265-4.859-2.265
			c-0.963,0-1.948,0.197-2.955,0.591c-1.007,0.394-1.96,0.952-2.856,1.674c-0.897,0.722-1.707,1.576-2.429,2.561
			c-0.722,0.985-1.259,2.068-1.608,3.251v20.421h-7.223V13.554h7.223V34.04c1.356-2.364,3.162-4.202,5.417-5.515
			c2.254-1.313,4.716-1.97,7.387-1.97c2.101,0,3.851,0.384,5.253,1.149c1.4,0.766,2.516,1.784,3.349,3.053
			c0.831,1.27,1.412,2.748,1.74,4.432c0.328,1.686,0.492,3.47,0.492,5.352V61.487z"/>
	</g>
</g>
</svg>
