<?xml version="1.0" encoding="utf-8"?>
<!-- Generator: Adobe Illustrator 19.1.0, SVG Export Plug-In . SVG Version: 6.00 Build 0)  -->
<svg version="1.1" id="Layer_1" xmlns="http://www.w3.org/2000/svg" xmlns:xlink="http://www.w3.org/1999/xlink" x="0px" y="0px"
	 viewBox="0 0 360.001 485" style="enable-background:new 0 0 360.001 485;" xml:space="preserve">
<style type="text/css">
	.st0{fill:#FFFFFF;}
</style>
<g>
	<path class="st0" d="M78.735,32.046C51.773,47.24,35.241,67.769,31.142,90.709c-6.407,23.902-20.538,84.302-20.594,152.263
		c-0.059,71.808,14.177,129.856,20.614,152.407c9.555,47.237,71.754,81.442,148.578,81.506c34.78,0.029,68.506-7.257,94.964-20.515
		c28.905-14.485,47.815-35.373,53.342-58.891c6.572-22.434,21.345-81.01,21.406-154.226c0.058-69.503-14.62-131.125-20.764-153.87
		c-0.771-3.801-1.892-7.532-3.34-11.184c-0.018-0.044-0.033-0.09-0.052-0.133c-7.077-17.729-22.031-33.529-43.813-45.852
		C254.068,16.705,218.074,8.146,180.129,8.115S106.175,16.583,78.735,32.046z M281.367,172.233
		c6.707-3.78,12.764-7.892,18.15-12.286c1.169,7.402,2.267,15.233,3.229,23.404c-0.901,28.16-51.09,59.161-122.811,59.101
		c-71.021-0.059-120.882-30.54-122.677-58.48c0.994-8.432,2.134-16.508,3.349-24.129c5.35,4.368,11.36,8.458,18.012,12.222
		c27.415,15.509,63.41,24.068,101.354,24.099C217.918,196.196,253.927,187.697,281.367,172.233z M179.841,355.169
		c-72.357-0.06-122.756-31.698-122.733-60.055l-0.913-0.001c-1.387-14.019-2.331-29.128-2.539-45.051
		c4.232,3.047,8.773,5.959,13.636,8.709c30.419,17.209,70.412,26.706,112.608,26.741c42.196,0.035,82.204-9.396,112.652-26.555
		c4.919-2.772,9.509-5.708,13.785-8.783c-0.231,15.971-1.197,31.102-2.605,45.144l-1.058-0.001
		C302.65,323.674,252.199,355.229,179.841,355.169z M286.188,387.37c-2.392,10.784-13.609,21.902-30.773,30.503
		c-20.576,10.31-47.438,15.975-75.638,15.952c-58.503-0.048-102.29-24.528-106.482-47.361c-0.128-0.7-0.291-1.393-0.489-2.078
		c-0.888-3.079-1.957-6.963-3.13-11.562c30.1,16.35,69.058,25.371,110.13,25.405c41.143,0.034,80.18-8.953,110.329-25.307
		c-1.346,5.237-2.576,9.623-3.577,13.019C286.417,386.413,286.294,386.89,286.188,387.37z M285.453,94.684
		c0.273,0.949,0.643,2.257,1.09,3.894c0.226,1.221,0.372,2.44,0.371,3.65c-0.009,11.096-9.736,22.938-26.688,32.492
		c-20.777,11.709-50.015,18.409-80.218,18.384c-61.163-0.051-106.842-26.995-106.822-51.053c0.001-0.789,0.064-1.583,0.162-2.379
		c0.89-3.278,1.532-5.478,1.82-6.444c3.639-8.323,12.198-16.619,24.706-23.668c20.778-11.709,50.016-18.41,80.219-18.385
		C234.914,51.221,277.267,72.871,285.453,94.684z"/>
</g>
</svg>
