<?xml version="1.0" encoding="utf-8"?>
<!-- Generator: Adobe Illustrator 19.1.0, SVG Export Plug-In . SVG Version: 6.00 Build 0)  -->
<svg version="1.1" id="Layer_1" xmlns="http://www.w3.org/2000/svg" xmlns:xlink="http://www.w3.org/1999/xlink" x="0px" y="0px"
	 viewBox="-46 191.379 405.517 118.621" style="enable-background:new -46 191.379 405.517 118.621;" xml:space="preserve">
<style type="text/css">
	.st0{fill:#BF3100;}
	.st1{fill:#8EA604;}
	.st2{fill:#EC5B05;}
	.st3{font-family:'Raleway-SemiBold';}
	.st4{font-size:107.6888px;}
	.st5{letter-spacing:-4;}
	.st6{letter-spacing:-8;}
	.st7{letter-spacing:-7;}
	.st8{letter-spacing:-6;}
</style>
<g>
	<g>
		<g>
			<path class="st0" d="M45.787,208.394c-2.328-4.763-5.673-7.795-9.555-8.726c-4.023-1.335-14.21-4.356-25.831-5.046
				c-12.279-0.729-22.347,1.124-26.268,1.999c-8.173,1.161-14.645,11.454-15.425,24.591c-0.353,5.947,0.555,11.787,2.557,16.444
				c2.187,5.088,5.57,8.531,9.536,9.711c3.77,1.349,13.639,4.461,26.158,5.205c11.884,0.706,22.569-1.187,26.52-2.01
				c0.658-0.094,1.307-0.248,1.946-0.459c0.008-0.003,0.016-0.005,0.023-0.008c3.102-1.033,5.954-3.432,8.279-7.033
				c2.926-4.533,4.75-10.602,5.136-17.09C49.249,219.483,48.156,213.241,45.787,208.394z M19.786,241.64
				c0.579,1.185,1.222,2.262,1.919,3.227c-1.278,0.126-2.628,0.235-4.034,0.318c-4.806-0.436-9.605-9.329-8.877-21.592
				c0.721-12.144,6.433-20.365,11.228-20.392c1.432,0.254,2.801,0.53,4.092,0.814c-0.8,0.871-1.56,1.858-2.27,2.958
				c-2.927,4.533-4.751,10.602-5.136,17.09C16.323,230.55,17.416,236.793,19.786,241.64z M-10.48,222.447
				c0.735-12.372,6.65-20.674,11.498-20.386l0.009-0.156c2.411-0.097,5.004-0.107,7.729,0.017c-0.563,0.693-1.107,1.441-1.626,2.244
				c-3.247,5.029-5.272,11.773-5.7,18.988s0.784,14.151,3.413,19.529c0.425,0.869,0.881,1.683,1.364,2.445
				c-2.729-0.199-5.306-0.516-7.694-0.897l0.011-0.181C-6.324,243.763-11.215,234.82-10.48,222.447z M-17.051,240.31
				c-1.82-0.517-3.609-2.546-4.908-5.568c-1.557-3.622-2.257-8.272-1.97-13.094c0.594-10.003,5.219-17.246,9.165-17.734
				c0.121-0.015,0.241-0.036,0.36-0.063c0.535-0.121,1.21-0.265,2.008-0.419c-3.097,4.983-5.03,11.555-5.447,18.578
				c-0.418,7.035,0.728,13.8,3.223,19.12c-0.882-0.283-1.62-0.537-2.19-0.742C-16.89,240.359-16.97,240.333-17.051,240.31z
				 M33.006,243.115c-0.165,0.037-0.392,0.087-0.677,0.147c-0.211,0.027-0.421,0.039-0.628,0.027
				c-1.897-0.113-3.825-1.895-5.289-4.889c-1.794-3.67-2.647-8.737-2.34-13.901c0.621-10.458,5.686-18,9.8-17.755
				c0.135,0.008,0.27,0.027,0.405,0.052c0.552,0.185,0.921,0.317,1.084,0.376c1.387,0.706,2.72,2.252,3.8,4.462
				c1.794,3.67,2.647,8.737,2.341,13.902C40.944,234.908,36.817,241.934,33.006,243.115z"/>
		</g>
		<g>
			<path class="st1" d="M32.154,262.172c-2.328-4.763-5.673-7.795-9.555-8.726c-4.023-1.335-14.21-4.356-25.831-5.046
				c-12.279-0.729-22.347,1.124-26.268,1.999c-8.173,1.161-14.645,11.454-15.425,24.591c-0.353,5.947,0.555,11.787,2.557,16.444
				c2.187,5.088,5.57,8.531,9.536,9.711c3.77,1.349,13.639,4.461,26.158,5.205c11.884,0.706,22.569-1.187,26.52-2.01
				c0.658-0.094,1.307-0.248,1.946-0.459c0.008-0.003,0.016-0.005,0.023-0.008c3.102-1.033,5.954-3.432,8.279-7.033
				c2.926-4.533,4.75-10.602,5.136-17.09C35.616,273.262,34.523,267.02,32.154,262.172z M6.152,295.419
				c0.579,1.185,1.222,2.262,1.919,3.227c-1.278,0.126-2.628,0.235-4.034,0.318c-4.806-0.436-9.605-9.329-8.877-21.592
				c0.721-12.144,6.433-20.365,11.228-20.392c1.432,0.254,2.801,0.53,4.092,0.814c-0.8,0.871-1.56,1.858-2.27,2.958
				c-2.927,4.533-4.751,10.602-5.136,17.09C2.69,284.329,3.783,290.572,6.152,295.419z M-24.113,276.226
				c0.735-12.372,6.65-20.674,11.498-20.386l0.009-0.156c2.411-0.097,5.004-0.107,7.729,0.017c-0.563,0.693-1.107,1.441-1.626,2.244
				c-3.247,5.029-5.272,11.773-5.7,18.988c-0.428,7.215,0.784,14.151,3.413,19.529c0.425,0.869,0.881,1.683,1.364,2.445
				c-2.729-0.199-5.306-0.516-7.694-0.897l0.011-0.181C-19.957,297.542-24.848,288.599-24.113,276.226z M-30.684,294.089
				c-1.82-0.517-3.609-2.546-4.908-5.568c-1.557-3.622-2.257-8.272-1.97-13.094c0.594-10.003,5.219-17.246,9.165-17.734
				c0.121-0.015,0.241-0.036,0.36-0.063c0.535-0.121,1.21-0.265,2.008-0.419c-3.097,4.983-5.03,11.555-5.447,18.578
				c-0.418,7.035,0.728,13.8,3.223,19.12c-0.882-0.283-1.62-0.537-2.19-0.742C-30.523,294.138-30.603,294.112-30.684,294.089z
				 M19.372,296.894c-0.165,0.037-0.392,0.087-0.677,0.147c-0.211,0.026-0.421,0.039-0.628,0.027
				c-1.897-0.113-3.825-1.895-5.289-4.889c-1.794-3.67-2.647-8.737-2.34-13.901c0.621-10.458,5.686-18,9.8-17.755
				c0.135,0.008,0.27,0.027,0.405,0.052c0.552,0.185,0.921,0.317,1.084,0.376c1.387,0.706,2.72,2.252,3.8,4.462
				c1.794,3.67,2.647,8.737,2.341,13.901C27.311,288.687,23.184,295.713,19.372,296.894z"/>
		</g>
		<path class="st2" d="M69.998,251.153c-2.328-4.763-5.673-7.795-9.555-8.726c-2.629-0.872-7.892-2.465-14.466-3.656
			c-0.653,1.539-1.404,2.981-2.249,4.29c-2.325,3.601-5.177,6-8.279,7.033c-0.008,0.003-0.016,0.005-0.023,0.008
			c-0.639,0.211-1.288,0.365-1.946,0.459c-1.054,0.22-2.591,0.515-4.499,0.817c-0.618,1.42-1.161,2.917-1.619,4.48
			c1.86,1.517,3.486,3.643,4.792,6.314c0.367,0.75,0.699,1.537,1.004,2.35c1.154-11.131,6.526-18.537,11.076-18.563
			c1.432,0.254,2.801,0.53,4.092,0.814c-0.8,0.871-1.56,1.858-2.27,2.958c-2.927,4.533-4.751,10.602-5.136,17.09
			c-0.385,6.488,0.707,12.731,3.077,17.578c0.579,1.185,1.222,2.262,1.919,3.227c-1.278,0.126-2.628,0.235-4.034,0.318
			c-2.516-0.228-5.028-2.776-6.748-6.909c-0.475,5.309-1.917,10.278-4.135,14.285c0.057,0.004,0.114,0.008,0.171,0.011
			c11.884,0.706,22.569-1.187,26.52-2.01c0.658-0.094,1.307-0.248,1.946-0.459c0.008-0.003,0.016-0.005,0.023-0.008
			c3.102-1.033,5.954-3.432,8.279-7.033c2.926-4.533,4.75-10.602,5.136-17.09C73.46,262.243,72.367,256.001,69.998,251.153z
			 M57.217,285.875c-0.165,0.037-0.392,0.087-0.677,0.147c-0.211,0.026-0.421,0.039-0.628,0.027
			c-1.897-0.113-3.825-1.895-5.289-4.889c-1.794-3.67-2.647-8.737-2.34-13.901c0.621-10.458,5.686-18,9.8-17.755
			c0.135,0.008,0.27,0.027,0.405,0.052c0.552,0.185,0.921,0.317,1.084,0.376c1.387,0.706,2.72,2.252,3.8,4.462
			c1.794,3.67,2.647,8.737,2.341,13.901C65.155,277.668,61.029,284.694,57.217,285.875z"/>
	</g>
	<text transform="matrix(1 0 0 1 93.4091 289.3519)"><tspan x="0" y="0" class="st0 st3 st4 st5">B</tspan><tspan x="68.489" y="0" class="st0 st3 st4 st6">a</tspan><tspan x="120.933" y="0" class="st0 st3 st4 st7">t</tspan><tspan x="153.131" y="0" class="st0 st3 st4 st8">c</tspan><tspan x="206.867" y="0" class="st0 st3 st4">h</tspan></text>
</g>
</svg>
