<?xml version="1.0" encoding="utf-8"?>
<!-- Generator: Adobe Illustrator 19.1.0, SVG Export Plug-In . SVG Version: 6.00 Build 0)  -->
<svg version="1.1" id="Layer_1" xmlns="http://www.w3.org/2000/svg" xmlns:xlink="http://www.w3.org/1999/xlink" x="0px" y="0px"
	 viewBox="-46 191.379 405.517 118.621" style="enable-background:new -46 191.379 405.517 118.621;" xml:space="preserve">
<style type="text/css">
	.st0{fill:#BF3100;}
	.st1{fill:#8EA604;}
	.st2{fill:#EC5B05;}
	.st3{enable-background:new    ;}
</style>
<g>
	<g>
		<g>
			<path class="st0" d="M45.787,207.773c-2.328-4.763-5.673-7.795-9.555-8.726c-4.023-1.335-14.21-4.356-25.831-5.046
				c-12.279-0.729-22.347,1.124-26.268,1.999c-8.173,1.161-14.645,11.454-15.425,24.591c-0.353,5.947,0.555,11.787,2.557,16.444
				c2.187,5.088,5.57,8.531,9.536,9.711c3.77,1.349,13.639,4.461,26.158,5.205c11.884,0.706,22.569-1.187,26.52-2.01
				c0.658-0.094,1.307-0.248,1.946-0.459c0.008-0.003,0.016-0.005,0.023-0.008c3.102-1.033,5.954-3.432,8.279-7.033
				c2.926-4.533,4.75-10.602,5.136-17.09C49.249,218.862,48.156,212.62,45.787,207.773z M19.786,241.019
				c0.579,1.185,1.222,2.262,1.919,3.227c-1.278,0.126-2.628,0.235-4.034,0.318c-4.806-0.436-9.605-9.329-8.877-21.592
				c0.721-12.144,6.433-20.365,11.228-20.392c1.432,0.254,2.801,0.53,4.092,0.814c-0.8,0.871-1.56,1.858-2.27,2.958
				c-2.927,4.533-4.751,10.602-5.136,17.09C16.323,229.929,17.416,236.172,19.786,241.019z M-10.48,221.826
				c0.735-12.372,6.65-20.674,11.498-20.386l0.009-0.156c2.411-0.097,5.004-0.107,7.729,0.017c-0.563,0.693-1.107,1.441-1.626,2.244
				c-3.247,5.029-5.272,11.773-5.7,18.988s0.784,14.151,3.413,19.529c0.425,0.869,0.881,1.683,1.364,2.445
				c-2.729-0.199-5.306-0.516-7.694-0.897l0.011-0.181C-6.324,243.142-11.215,234.199-10.48,221.826z M-17.051,239.689
				c-1.82-0.517-3.609-2.546-4.908-5.568c-1.557-3.622-2.257-8.272-1.97-13.094c0.594-10.003,5.219-17.246,9.165-17.734
				c0.121-0.015,0.241-0.036,0.36-0.063c0.535-0.121,1.21-0.265,2.008-0.419c-3.097,4.983-5.03,11.555-5.447,18.578
				c-0.418,7.035,0.728,13.8,3.223,19.12c-0.882-0.283-1.62-0.537-2.19-0.742C-16.89,239.738-16.97,239.712-17.051,239.689z
				 M33.006,242.494c-0.165,0.037-0.392,0.087-0.677,0.147c-0.211,0.027-0.421,0.039-0.628,0.027
				c-1.897-0.113-3.825-1.895-5.289-4.889c-1.794-3.67-2.647-8.737-2.34-13.901c0.621-10.458,5.686-18,9.8-17.755
				c0.135,0.008,0.27,0.027,0.405,0.052c0.552,0.185,0.921,0.317,1.084,0.376c1.387,0.706,2.72,2.252,3.8,4.462
				c1.794,3.67,2.647,8.737,2.341,13.902C40.944,234.287,36.817,241.313,33.006,242.494z"/>
		</g>
		<g>
			<path class="st1" d="M32.154,261.551c-2.328-4.763-5.673-7.795-9.555-8.726c-4.023-1.335-14.21-4.356-25.831-5.046
				c-12.279-0.729-22.347,1.124-26.268,1.999c-8.173,1.161-14.645,11.454-15.425,24.591c-0.353,5.947,0.555,11.787,2.557,16.444
				c2.187,5.088,5.57,8.531,9.536,9.711c3.77,1.349,13.639,4.461,26.158,5.205c11.884,0.706,22.569-1.187,26.52-2.01
				c0.658-0.094,1.307-0.248,1.946-0.459c0.008-0.003,0.016-0.005,0.023-0.008c3.102-1.033,5.954-3.432,8.279-7.033
				c2.926-4.533,4.75-10.602,5.136-17.09C35.616,272.641,34.523,266.399,32.154,261.551z M6.152,294.798
				c0.579,1.185,1.222,2.262,1.919,3.227c-1.278,0.126-2.628,0.235-4.034,0.318c-4.806-0.436-9.605-9.329-8.877-21.592
				c0.721-12.144,6.433-20.365,11.228-20.392c1.432,0.254,2.801,0.53,4.092,0.814c-0.8,0.871-1.56,1.858-2.27,2.958
				c-2.927,4.533-4.751,10.602-5.136,17.09C2.69,283.708,3.783,289.951,6.152,294.798z M-24.113,275.605
				c0.735-12.372,6.65-20.674,11.498-20.386l0.009-0.156c2.411-0.097,5.004-0.107,7.729,0.017c-0.563,0.693-1.107,1.441-1.626,2.244
				c-3.247,5.029-5.272,11.773-5.7,18.988c-0.428,7.215,0.784,14.151,3.413,19.529c0.425,0.869,0.881,1.683,1.364,2.445
				c-2.729-0.199-5.306-0.516-7.694-0.897l0.011-0.181C-19.957,296.921-24.848,287.978-24.113,275.605z M-30.684,293.468
				c-1.82-0.517-3.609-2.546-4.908-5.568c-1.557-3.622-2.257-8.272-1.97-13.094c0.594-10.003,5.219-17.246,9.165-17.734
				c0.121-0.015,0.241-0.036,0.36-0.063c0.535-0.121,1.21-0.265,2.008-0.419c-3.097,4.983-5.03,11.555-5.447,18.578
				c-0.418,7.035,0.728,13.8,3.223,19.12c-0.882-0.283-1.62-0.537-2.19-0.742C-30.523,293.517-30.603,293.491-30.684,293.468z
				 M19.372,296.273c-0.165,0.037-0.392,0.087-0.677,0.147c-0.211,0.026-0.421,0.039-0.628,0.027
				c-1.897-0.113-3.825-1.895-5.289-4.889c-1.794-3.67-2.647-8.737-2.34-13.901c0.621-10.458,5.686-18,9.8-17.755
				c0.135,0.008,0.27,0.027,0.405,0.052c0.552,0.185,0.921,0.317,1.084,0.376c1.387,0.706,2.72,2.252,3.8,4.462
				c1.794,3.67,2.647,8.737,2.341,13.901C27.311,288.066,23.184,295.092,19.372,296.273z"/>
		</g>
		<path class="st2" d="M69.998,250.532c-2.328-4.763-5.673-7.795-9.555-8.726c-2.629-0.872-7.892-2.465-14.466-3.656
			c-0.653,1.539-1.404,2.981-2.249,4.29c-2.325,3.601-5.177,6-8.279,7.033c-0.008,0.003-0.016,0.005-0.023,0.008
			c-0.639,0.211-1.288,0.365-1.946,0.459c-1.054,0.22-2.591,0.515-4.499,0.817c-0.618,1.42-1.161,2.917-1.619,4.48
			c1.86,1.517,3.486,3.643,4.792,6.314c0.367,0.75,0.699,1.537,1.004,2.35c1.154-11.131,6.526-18.537,11.076-18.563
			c1.432,0.254,2.801,0.53,4.092,0.814c-0.8,0.871-1.56,1.858-2.27,2.958c-2.927,4.533-4.751,10.602-5.136,17.09
			c-0.385,6.488,0.707,12.731,3.077,17.578c0.579,1.185,1.222,2.262,1.919,3.227c-1.278,0.126-2.628,0.235-4.034,0.318
			c-2.516-0.228-5.028-2.776-6.748-6.909c-0.475,5.309-1.917,10.278-4.135,14.285c0.057,0.004,0.114,0.008,0.171,0.011
			c11.884,0.706,22.569-1.187,26.52-2.01c0.658-0.094,1.307-0.248,1.946-0.459c0.008-0.003,0.016-0.005,0.023-0.008
			c3.102-1.033,5.954-3.432,8.279-7.033c2.926-4.533,4.75-10.602,5.136-17.09C73.46,261.622,72.367,255.38,69.998,250.532z
			 M57.217,285.254c-0.165,0.037-0.392,0.087-0.677,0.147c-0.211,0.026-0.421,0.039-0.628,0.027
			c-1.897-0.113-3.825-1.895-5.289-4.889c-1.794-3.67-2.647-8.737-2.34-13.901c0.621-10.458,5.686-18,9.8-17.755
			c0.135,0.008,0.27,0.027,0.405,0.052c0.552,0.185,0.921,0.317,1.084,0.376c1.387,0.706,2.72,2.252,3.8,4.462
			c1.794,3.67,2.647,8.737,2.341,13.901C65.155,277.047,61.029,284.073,57.217,285.254z"/>
	</g>
	<g class="st3">
		<path class="st0" d="M162.114,269.024c0,3.088-0.629,5.853-1.885,8.292c-1.257,2.441-2.944,4.506-5.061,6.192
			c-2.119,1.688-4.614,2.979-7.484,3.877c-2.873,0.898-5.923,1.346-9.154,1.346h-36.506v-76.459h39.414
			c2.655,0,5.062,0.575,7.215,1.723c2.154,1.149,3.985,2.639,5.492,4.47c1.508,1.83,2.674,3.913,3.5,6.246
			c0.825,2.333,1.238,4.684,1.238,7.053c0,3.734-0.952,7.234-2.854,10.5c-1.903,3.268-4.614,5.69-8.13,7.27
			c4.378,1.292,7.843,3.645,10.392,7.053C160.839,259.996,162.114,264.142,162.114,269.024z M114.085,222.717v22.508h22.184
			c1.507,0,2.889-0.286,4.146-0.862c1.255-0.573,2.369-1.346,3.338-2.314c0.969-0.97,1.723-2.136,2.261-3.5
			c0.539-1.363,0.808-2.871,0.808-4.523c0-3.301-0.934-6.012-2.8-8.13c-1.868-2.117-4.237-3.178-7.107-3.178H114.085z
			 M149.73,266.762c0-1.578-0.269-3.086-0.808-4.522c-0.539-1.436-1.257-2.692-2.154-3.77c-0.898-1.077-1.992-1.938-3.285-2.584
			c-1.292-0.646-2.692-0.97-4.2-0.97h-25.199v23.368h24.445c1.578,0,3.051-0.304,4.415-0.915c1.363-0.609,2.548-1.436,3.554-2.477
			c1.004-1.04,1.793-2.262,2.369-3.661C149.442,269.831,149.73,268.342,149.73,266.762z"/>
	</g>
	<g class="st3">
		<path class="st0" d="M183.974,289.808c-2.729,0-5.26-0.449-7.592-1.347c-2.334-0.896-4.345-2.135-6.031-3.715
			c-1.688-1.578-3.015-3.446-3.984-5.6c-0.969-2.154-1.454-4.486-1.454-7c0-2.655,0.574-5.062,1.723-7.215
			c1.147-2.154,2.781-4.021,4.9-5.601c2.117-1.578,4.63-2.8,7.538-3.661s6.12-1.292,9.638-1.292c2.655,0,5.277,0.233,7.861,0.7
			c2.584,0.468,4.917,1.095,7,1.884v-3.876c0-4.163-1.185-7.412-3.554-9.746c-2.37-2.332-5.78-3.5-10.23-3.5
			c-3.016,0-5.977,0.557-8.885,1.669c-2.907,1.114-5.906,2.711-8.992,4.792l-3.662-7.538c7.25-4.881,14.789-7.322,22.615-7.322
			c7.753,0,13.784,1.975,18.092,5.923c4.308,3.949,6.462,9.621,6.462,17.015v20.353c0,1.365,0.25,2.334,0.754,2.908
			c0.501,0.575,1.362,0.898,2.584,0.969v10.123c-1.149,0.216-2.208,0.358-3.177,0.431c-0.969,0.07-1.85,0.107-2.639,0.107
			c-2.298-0.145-4.038-0.754-5.223-1.83c-1.185-1.077-1.922-2.513-2.208-4.308l-0.322-3.554c-2.515,3.303-5.619,5.833-9.316,7.592
			C192.175,288.928,188.209,289.808,183.974,289.808z M187.204,281.085c2.871,0,5.582-0.521,8.131-1.562
			c2.547-1.04,4.54-2.494,5.977-4.361c1.508-1.293,2.262-2.655,2.262-4.093v-7.431c-2.011-0.789-4.146-1.399-6.408-1.83
			c-2.261-0.431-4.469-0.646-6.623-0.646c-4.237,0-7.7,0.915-10.392,2.746c-2.692,1.831-4.039,4.254-4.039,7.269
			c0,2.801,1.04,5.152,3.123,7.054C181.317,280.134,183.974,281.085,187.204,281.085z"/>
	</g>
	<g class="st3">
		<path class="st0" d="M252.787,285.823c-1.58,0.718-3.68,1.525-6.3,2.423c-2.622,0.896-5.476,1.346-8.562,1.346
			c-1.867,0-3.607-0.252-5.223-0.754c-1.615-0.501-3.053-1.255-4.308-2.261c-1.257-1.005-2.245-2.315-2.962-3.931
			c-0.718-1.616-1.076-3.571-1.076-5.869v-35.215h-7.538v-9.153h7.538v-18.522h11.846v18.522h12.276v9.153h-12.276v31.445
			c0,2.011,0.573,3.465,1.723,4.361c1.147,0.898,2.548,1.347,4.2,1.347c1.65,0,3.23-0.286,4.738-0.862
			c1.508-0.573,2.62-1.039,3.338-1.399L252.787,285.823z"/>
	</g>
	<g class="st3">
		<path class="st0" d="M249.986,260.516c0-3.947,0.682-7.681,2.046-11.199c1.363-3.517,3.32-6.604,5.869-9.262
			c2.548-2.654,5.617-4.755,9.207-6.3c3.59-1.543,7.609-2.314,12.062-2.314c5.815,0,10.823,1.275,15.022,3.822
			c4.2,2.55,7.34,5.941,9.423,10.177l-11.522,3.661c-1.365-2.369-3.195-4.216-5.492-5.546c-2.299-1.327-4.846-1.992-7.646-1.992
			c-2.369,0-4.577,0.468-6.623,1.4c-2.046,0.934-3.823,2.244-5.331,3.931c-1.508,1.688-2.692,3.68-3.554,5.977
			c-0.861,2.299-1.292,4.846-1.292,7.646c0,2.729,0.447,5.261,1.346,7.593c0.897,2.333,2.117,4.361,3.662,6.084
			c1.543,1.723,3.338,3.069,5.384,4.038c2.046,0.97,4.217,1.454,6.516,1.454c1.436,0,2.87-0.197,4.308-0.592
			c1.435-0.395,2.746-0.951,3.931-1.67c1.185-0.717,2.225-1.543,3.123-2.477c0.896-0.933,1.562-1.938,1.992-3.016l11.63,3.446
			c-1.867,4.237-4.99,7.7-9.369,10.392c-4.38,2.692-9.549,4.039-15.507,4.039c-4.38,0-8.364-0.791-11.953-2.369
			c-3.591-1.578-6.66-3.716-9.208-6.408c-2.549-2.691-4.522-5.796-5.923-9.314C250.686,268.199,249.986,264.465,249.986,260.516z"/>
	</g>
	<g class="st3">
		<path class="st0" d="M357.782,288.731h-11.846v-31.553c0-5.169-0.935-8.992-2.8-11.469c-1.868-2.477-4.523-3.716-7.97-3.716
			c-1.58,0-3.195,0.323-4.846,0.97c-1.652,0.646-3.214,1.562-4.685,2.746c-1.473,1.185-2.8,2.584-3.984,4.199
			c-1.185,1.616-2.064,3.393-2.639,5.331v33.491h-11.846v-78.613h11.846v33.6c2.225-3.877,5.187-6.893,8.885-9.046
			c3.696-2.154,7.735-3.23,12.115-3.23c3.445,0,6.316,0.629,8.614,1.884c2.297,1.257,4.128,2.927,5.492,5.008
			c1.363,2.083,2.315,4.506,2.854,7.27c0.538,2.764,0.808,5.69,0.808,8.776V288.731z"/>
	</g>
</g>
</svg>
