<?xml version="1.0" encoding="utf-8"?>
<!-- Generator: Adobe Illustrator 19.1.0, SVG Export Plug-In . SVG Version: 6.00 Build 0)  -->
<svg version="1.1" id="Layer_1" xmlns="http://www.w3.org/2000/svg" xmlns:xlink="http://www.w3.org/1999/xlink" x="0px" y="0px"
	 width="250px" height="75px" viewBox="0 0 250 75" style="enable-background:new 0 0 250 75;" xml:space="preserve">
<style type="text/css">
	.st0{fill:#BF3100;}
	.st1{fill:#8EA604;}
	.st2{fill:#EC5B05;}
</style>
<g>
	<g>
		<g>
			<path class="st0" d="M56.631,10.95c-1.427-2.918-3.476-4.777-5.855-5.347c-2.465-0.818-8.708-2.669-15.828-3.092
				C27.424,2.064,21.254,3.2,18.852,3.736C13.844,4.447,9.878,10.755,9.4,18.804c-0.216,3.644,0.34,7.223,1.567,10.077
				c1.34,3.118,3.413,5.227,5.844,5.951c2.31,0.826,8.358,2.734,16.029,3.189c7.282,0.432,13.83-0.727,16.251-1.232
				c0.403-0.057,0.801-0.152,1.192-0.281c0.005-0.002,0.01-0.003,0.014-0.005c1.901-0.633,3.649-2.103,5.073-4.31
				c1.793-2.777,2.911-6.497,3.147-10.472S58.083,13.92,56.631,10.95z M40.699,31.322c0.355,0.726,0.749,1.386,1.176,1.977
				c-0.783,0.077-1.61,0.144-2.472,0.195c-2.945-0.267-5.886-5.716-5.439-13.231c0.442-7.441,3.942-12.479,6.88-12.496
				c0.877,0.156,1.717,0.325,2.508,0.499c-0.49,0.534-0.956,1.138-1.391,1.812c-1.793,2.777-2.911,6.497-3.147,10.472
				C38.577,24.527,39.247,28.352,40.699,31.322z M22.153,19.562c0.45-7.582,4.075-12.668,7.046-12.492l0.006-0.096
				c1.477-0.059,3.066-0.065,4.736,0.01c-0.345,0.425-0.678,0.883-0.996,1.375c-1.99,3.082-3.23,7.214-3.493,11.635
				s0.48,8.671,2.091,11.967c0.26,0.532,0.54,1.031,0.836,1.498c-1.672-0.122-3.252-0.316-4.714-0.55l0.007-0.111
				C24.7,32.623,21.703,27.143,22.153,19.562z M18.126,30.507c-1.115-0.317-2.211-1.56-3.007-3.412
				c-0.954-2.219-1.383-5.069-1.207-8.024c0.364-6.13,3.198-10.568,5.616-10.867c0.074-0.009,0.148-0.022,0.221-0.038
				c0.328-0.074,0.742-0.162,1.231-0.257c-1.898,3.054-3.082,7.081-3.338,11.384c-0.256,4.311,0.446,8.457,1.975,11.716
				c-0.54-0.173-0.993-0.329-1.342-0.455C18.225,30.537,18.176,30.522,18.126,30.507z M48.8,32.226
				c-0.101,0.023-0.24,0.053-0.415,0.09c-0.129,0.016-0.258,0.024-0.385,0.016c-1.163-0.069-2.344-1.161-3.241-2.996
				c-1.099-2.249-1.622-5.354-1.434-8.518c0.381-6.409,3.484-11.03,6.005-10.88c0.083,0.005,0.166,0.016,0.248,0.032
				c0.338,0.113,0.565,0.194,0.664,0.23c0.85,0.432,1.667,1.38,2.328,2.734c1.099,2.249,1.622,5.354,1.434,8.518
				C53.664,27.197,51.135,31.502,48.8,32.226z"/>
		</g>
		<g>
			<path class="st1" d="M48.277,43.904c-1.427-2.918-3.476-4.777-5.855-5.347c-2.465-0.818-8.708-2.669-15.828-3.092
				C19.07,35.018,12.9,36.154,10.498,36.69c-5.008,0.711-8.974,7.019-9.452,15.069c-0.216,3.644,0.34,7.223,1.567,10.077
				c1.34,3.118,3.413,5.227,5.844,5.951c2.31,0.826,8.358,2.734,16.029,3.189c7.282,0.432,13.83-0.727,16.251-1.232
				c0.403-0.057,0.801-0.152,1.192-0.281c0.005-0.002,0.01-0.003,0.014-0.005c1.901-0.633,3.649-2.103,5.073-4.31
				c1.793-2.777,2.911-6.497,3.147-10.472S49.729,46.874,48.277,43.904z M32.345,64.277c0.355,0.726,0.749,1.386,1.176,1.977
				c-0.783,0.077-1.61,0.144-2.472,0.195c-2.945-0.267-5.886-5.716-5.439-13.231c0.442-7.441,3.942-12.479,6.88-12.496
				c0.877,0.156,1.717,0.325,2.508,0.499c-0.49,0.534-0.956,1.138-1.391,1.812c-1.793,2.777-2.911,6.497-3.147,10.472
				C30.223,57.481,30.893,61.306,32.345,64.277z M13.799,52.516c0.45-7.582,4.075-12.668,7.046-12.492l0.006-0.096
				c1.477-0.059,3.066-0.065,4.736,0.01c-0.345,0.425-0.678,0.883-0.996,1.375c-1.99,3.082-3.23,7.214-3.493,11.635
				s0.48,8.671,2.091,11.967c0.26,0.532,0.54,1.031,0.836,1.498c-1.672-0.122-3.252-0.316-4.714-0.55l0.007-0.111
				C16.346,65.577,13.349,60.097,13.799,52.516z M9.772,63.462c-1.115-0.317-2.211-1.56-3.007-3.412
				c-0.954-2.219-1.383-5.069-1.207-8.024c0.364-6.13,3.198-10.568,5.616-10.867c0.074-0.009,0.148-0.022,0.221-0.038
				c0.328-0.074,0.742-0.162,1.231-0.257c-1.898,3.054-3.082,7.081-3.338,11.384c-0.256,4.311,0.446,8.457,1.975,11.716
				c-0.54-0.173-0.993-0.329-1.342-0.455C9.871,63.492,9.822,63.476,9.772,63.462z M40.446,65.181
				c-0.101,0.023-0.24,0.053-0.415,0.09c-0.129,0.016-0.258,0.024-0.385,0.016c-1.163-0.069-2.344-1.161-3.241-2.996
				c-1.099-2.249-1.622-5.354-1.434-8.518c0.381-6.409,3.484-11.03,6.005-10.88c0.083,0.005,0.166,0.016,0.248,0.032
				c0.338,0.113,0.565,0.194,0.664,0.23c0.85,0.432,1.667,1.38,2.328,2.734c1.099,2.249,1.622,5.354,1.434,8.518
				C45.31,60.151,42.781,64.457,40.446,65.181z"/>
		</g>
		<path class="st2" d="M71.467,37.152c-1.427-2.918-3.476-4.777-5.855-5.347c-1.611-0.535-4.836-1.51-8.864-2.24
			c-0.4,0.943-0.86,1.826-1.378,2.629c-1.425,2.207-3.172,3.677-5.073,4.31c-0.005,0.002-0.01,0.003-0.014,0.005
			c-0.392,0.129-0.789,0.224-1.192,0.281c-0.646,0.135-1.588,0.316-2.757,0.501c-0.378,0.87-0.711,1.787-0.992,2.745
			c1.14,0.93,2.136,2.232,2.936,3.869c0.225,0.46,0.428,0.942,0.615,1.44c0.707-6.821,3.999-11.359,6.787-11.375
			c0.877,0.156,1.717,0.325,2.508,0.499c-0.491,0.534-0.956,1.138-1.391,1.812c-1.793,2.777-2.911,6.497-3.147,10.472
			s0.434,7.801,1.885,10.771c0.355,0.726,0.749,1.386,1.176,1.977c-0.783,0.077-1.61,0.144-2.472,0.195
			c-1.542-0.14-3.081-1.701-4.135-4.233c-0.291,3.253-1.175,6.298-2.534,8.753c0.035,0.002,0.07,0.005,0.105,0.007
			c7.282,0.432,13.83-0.727,16.251-1.232c0.403-0.057,0.801-0.152,1.192-0.281c0.005-0.002,0.01-0.003,0.014-0.005
			c1.901-0.633,3.649-2.103,5.073-4.31c1.793-2.777,2.911-6.497,3.147-10.472C73.589,43.947,72.919,40.122,71.467,37.152z
			 M63.635,58.428c-0.101,0.023-0.24,0.054-0.415,0.09c-0.129,0.016-0.258,0.024-0.385,0.016c-1.163-0.069-2.344-1.161-3.241-2.996
			c-1.099-2.249-1.622-5.354-1.434-8.518c0.381-6.409,3.484-11.03,6.005-10.88c0.083,0.005,0.166,0.016,0.248,0.032
			c0.338,0.113,0.565,0.194,0.664,0.23c0.85,0.432,1.667,1.38,2.328,2.734c1.099,2.249,1.622,5.354,1.434,8.518
			C68.5,53.399,65.971,57.704,63.635,58.428z"/>
	</g>
	<g>
		<path class="st0" d="M127.914,48.483c0,1.892-0.385,3.586-1.154,5.081c-0.77,1.496-1.805,2.761-3.102,3.795
			c-1.299,1.034-2.827,1.826-4.586,2.376c-1.76,0.551-3.63,0.825-5.609,0.825h-22.37V13.707h24.152c1.627,0,3.102,0.352,4.421,1.056
			c1.319,0.704,2.442,1.617,3.365,2.738c0.924,1.122,1.638,2.398,2.145,3.827c0.505,1.43,0.759,2.871,0.759,4.322
			c0,2.288-0.583,4.432-1.749,6.434c-1.166,2.002-2.827,3.487-4.982,4.454c2.683,0.792,4.806,2.233,6.368,4.322
			C127.132,42.951,127.914,45.492,127.914,48.483z M98.483,20.108v13.792h13.594c0.924,0,1.77-0.175,2.541-0.528
			c0.769-0.352,1.452-0.825,2.046-1.419c0.594-0.594,1.056-1.308,1.386-2.145c0.33-0.835,0.495-1.759,0.495-2.772
			c0-2.023-0.572-3.684-1.716-4.982c-1.144-1.297-2.596-1.947-4.355-1.947H98.483z M120.325,47.097c0-0.967-0.165-1.891-0.495-2.771
			c-0.33-0.88-0.77-1.65-1.32-2.31c-0.551-0.66-1.221-1.188-2.013-1.584c-0.792-0.396-1.65-0.594-2.573-0.594H98.483v14.319h14.979
			c0.967,0,1.869-0.187,2.705-0.561c0.835-0.373,1.561-0.88,2.178-1.518c0.615-0.637,1.099-1.386,1.452-2.244
			C120.149,48.978,120.325,48.065,120.325,47.097z"/>
		<path class="st0" d="M141.309,61.219c-1.673,0-3.223-0.275-4.652-0.825c-1.43-0.549-2.662-1.308-3.696-2.276
			c-1.034-0.967-1.847-2.112-2.442-3.432c-0.594-1.319-0.89-2.748-0.89-4.289c0-1.627,0.351-3.102,1.056-4.422
			c0.703-1.319,1.704-2.463,3.002-3.431c1.297-0.967,2.838-1.716,4.62-2.243c1.781-0.528,3.75-0.792,5.906-0.792
			c1.627,0,3.233,0.143,4.817,0.429c1.584,0.287,3.013,0.671,4.289,1.155v-2.376c0-2.551-0.726-4.542-2.178-5.972
			c-1.452-1.429-3.542-2.145-6.269-2.145c-1.848,0-3.662,0.341-5.444,1.023c-1.781,0.683-3.619,1.661-5.51,2.937l-2.243-4.619
			c4.443-2.991,9.062-4.487,13.858-4.487c4.75,0,8.446,1.211,11.085,3.629c2.64,2.42,3.96,5.896,3.96,10.426V51.98
			c0,0.837,0.154,1.43,0.462,1.782c0.307,0.352,0.835,0.551,1.583,0.594v6.203c-0.704,0.132-1.352,0.22-1.947,0.264
			c-0.594,0.043-1.133,0.066-1.616,0.066c-1.409-0.089-2.475-0.462-3.201-1.121c-0.726-0.66-1.177-1.54-1.352-2.64l-0.198-2.178
			c-1.54,2.024-3.443,3.574-5.708,4.652C146.334,60.68,143.904,61.219,141.309,61.219z M143.289,55.874
			c1.759,0,3.42-0.319,4.982-0.957c1.561-0.637,2.782-1.528,3.662-2.672c0.924-0.792,1.386-1.627,1.386-2.507v-4.553
			c-1.232-0.484-2.541-0.858-3.926-1.122c-1.386-0.264-2.739-0.396-4.058-0.396c-2.597,0-4.718,0.561-6.368,1.683
			c-1.65,1.121-2.474,2.607-2.474,4.454c0,1.716,0.637,3.157,1.914,4.322C139.681,55.291,141.309,55.874,143.289,55.874z"/>
		<path class="st0" d="M183.475,58.778c-0.968,0.44-2.255,0.935-3.86,1.485c-1.607,0.549-3.355,0.825-5.246,0.825
			c-1.145,0-2.211-0.154-3.2-0.462c-0.99-0.307-1.871-0.769-2.64-1.385c-0.77-0.616-1.376-1.419-1.815-2.409
			c-0.44-0.99-0.66-2.188-0.66-3.597V31.656h-4.619v-5.609h4.619v-11.35h7.259v11.35h7.523v5.609h-7.523v19.269
			c0,1.232,0.352,2.123,1.056,2.672c0.703,0.551,1.561,0.825,2.574,0.825c1.011,0,1.98-0.175,2.903-0.528
			c0.923-0.351,1.605-0.637,2.045-0.858L183.475,58.778z"/>
		<path class="st0" d="M181.759,43.27c0-2.419,0.418-4.707,1.254-6.863c0.835-2.155,2.034-4.047,3.596-5.675
			c1.561-1.627,3.441-2.914,5.642-3.86c2.199-0.945,4.663-1.419,7.391-1.419c3.564,0,6.632,0.782,9.205,2.343
			c2.574,1.562,4.498,3.641,5.774,6.236l-7.061,2.244c-0.837-1.452-1.958-2.584-3.365-3.398c-1.409-0.814-2.97-1.221-4.686-1.221
			c-1.452,0-2.804,0.287-4.058,0.858c-1.254,0.572-2.342,1.375-3.266,2.409c-0.924,1.034-1.65,2.255-2.178,3.662
			c-0.528,1.408-0.792,2.97-0.792,4.685c0,1.673,0.274,3.223,0.825,4.652c0.549,1.43,1.297,2.673,2.243,3.729
			c0.945,1.056,2.046,1.881,3.3,2.474c1.254,0.594,2.584,0.891,3.993,0.891c0.879,0,1.759-0.121,2.639-0.363
			c0.88-0.241,1.683-0.582,2.409-1.023c0.726-0.439,1.363-0.945,1.914-1.518c0.55-0.571,0.957-1.188,1.221-1.848l7.127,2.112
			c-1.145,2.596-3.058,4.718-5.741,6.368c-2.684,1.65-5.851,2.475-9.502,2.475c-2.684,0-5.125-0.485-7.325-1.452
			s-4.081-2.277-5.642-3.927c-1.562-1.65-2.771-3.552-3.629-5.708C182.188,47.977,181.759,45.69,181.759,43.27z"/>
		<path class="st0" d="M247.813,60.559h-7.259V41.224c0-3.168-0.572-5.51-1.716-7.028c-1.145-1.518-2.772-2.277-4.883-2.277
			c-0.968,0-1.958,0.198-2.97,0.594c-1.013,0.396-1.969,0.957-2.871,1.683c-0.902,0.726-1.716,1.584-2.442,2.573
			s-1.265,2.079-1.616,3.267v20.522h-7.259V12.387h7.259v20.588c1.363-2.375,3.178-4.223,5.444-5.543
			c2.266-1.32,4.74-1.98,7.424-1.98c2.112,0,3.871,0.386,5.279,1.155c1.407,0.77,2.529,1.793,3.365,3.068
			c0.835,1.276,1.419,2.761,1.749,4.454c0.33,1.694,0.495,3.487,0.495,5.378V60.559z"/>
	</g>
</g>
</svg>
