<?xml version="1.0" encoding="utf-8"?>
<!-- Generator: Adobe Illustrator 19.1.0, SVG Export Plug-In . SVG Version: 6.00 Build 0)  -->
<svg version="1.1" id="Layer_1" xmlns="http://www.w3.org/2000/svg" xmlns:xlink="http://www.w3.org/1999/xlink" x="0px" y="0px"
	 viewBox="-46 191.379 405.517 118.621" style="enable-background:new -46 191.379 405.517 118.621;" xml:space="preserve">
<style type="text/css">
	.st0{fill:#B92F00;}
	.st1{fill:#803800;}
	.st2{fill:#DE8A00;}
</style>
<g>
	<g>
		<g>
			<path class="st0" d="M46.155,208.603c-2.328-4.763-5.673-7.795-9.555-8.726c-4.023-1.335-14.21-4.356-25.831-5.046
				c-12.279-0.729-22.347,1.124-26.268,1.999c-8.173,1.161-14.645,11.454-15.425,24.591c-0.353,5.947,0.555,11.787,2.557,16.444
				c2.187,5.088,5.57,8.531,9.536,9.711c3.77,1.348,13.639,4.461,26.158,5.205c11.884,0.706,22.569-1.187,26.52-2.01
				c0.658-0.094,1.307-0.248,1.946-0.459c0.008-0.003,0.016-0.005,0.023-0.008c3.102-1.033,5.954-3.432,8.279-7.033
				c2.926-4.533,4.75-10.602,5.136-17.09C49.617,219.693,48.525,213.45,46.155,208.603z M20.154,241.849
				c0.579,1.185,1.222,2.262,1.919,3.227c-1.278,0.126-2.628,0.235-4.034,0.318c-4.806-0.436-9.605-9.329-8.877-21.592
				c0.721-12.144,6.433-20.365,11.228-20.392c1.432,0.254,2.801,0.53,4.092,0.814c-0.8,0.871-1.56,1.858-2.27,2.958
				c-2.927,4.533-4.751,10.602-5.136,17.09S17.785,237.002,20.154,241.849z M-10.111,222.657
				c0.735-12.372,6.65-20.674,11.498-20.386l0.009-0.156c2.411-0.097,5.004-0.107,7.729,0.017c-0.563,0.693-1.107,1.441-1.626,2.244
				c-3.247,5.029-5.272,11.773-5.7,18.988s0.784,14.151,3.413,19.529c0.425,0.869,0.881,1.683,1.364,2.445
				c-2.729-0.199-5.306-0.516-7.694-0.897l0.011-0.181C-5.955,243.972-10.846,235.029-10.111,222.657z M-16.682,240.519
				c-1.82-0.517-3.609-2.546-4.908-5.568c-1.557-3.622-2.257-8.272-1.97-13.094c0.594-10.003,5.219-17.246,9.165-17.734
				c0.121-0.015,0.241-0.036,0.36-0.063c0.535-0.121,1.21-0.265,2.008-0.419c-3.097,4.983-5.03,11.555-5.447,18.578
				c-0.418,7.035,0.728,13.8,3.223,19.12c-0.882-0.283-1.62-0.537-2.19-0.742C-16.521,240.568-16.601,240.542-16.682,240.519z
				 M33.374,243.325c-0.165,0.037-0.392,0.087-0.677,0.147c-0.211,0.026-0.421,0.039-0.628,0.027
				c-1.897-0.113-3.825-1.895-5.289-4.889c-1.794-3.67-2.647-8.737-2.34-13.901c0.621-10.458,5.686-18,9.8-17.755
				c0.135,0.008,0.27,0.027,0.405,0.051c0.552,0.185,0.921,0.317,1.084,0.376c1.387,0.706,2.72,2.252,3.8,4.462
				c1.794,3.67,2.647,8.737,2.341,13.902C41.312,235.117,37.186,242.143,33.374,243.325z"/>
		</g>
		<g>
			<path class="st1" d="M32.522,262.382c-2.328-4.763-5.673-7.795-9.555-8.726c-4.023-1.335-14.21-4.356-25.831-5.046
				c-12.279-0.729-22.347,1.124-26.268,1.999c-8.173,1.161-14.645,11.454-15.425,24.591c-0.353,5.947,0.555,11.787,2.557,16.444
				c2.187,5.088,5.57,8.531,9.536,9.711c3.77,1.349,13.639,4.461,26.158,5.205c11.884,0.706,22.569-1.187,26.52-2.01
				c0.658-0.094,1.307-0.248,1.946-0.459c0.008-0.003,0.016-0.005,0.023-0.008c3.102-1.033,5.954-3.432,8.279-7.033
				c2.926-4.533,4.75-10.602,5.136-17.09C35.984,273.472,34.892,267.229,32.522,262.382z M6.521,295.628
				c0.579,1.185,1.222,2.262,1.919,3.227c-1.278,0.126-2.628,0.235-4.034,0.318c-4.806-0.436-9.605-9.329-8.877-21.592
				c0.721-12.144,6.433-20.365,11.228-20.392c1.432,0.254,2.801,0.53,4.092,0.814c-0.8,0.871-1.56,1.858-2.27,2.958
				c-2.927,4.533-4.751,10.602-5.136,17.09S4.152,290.781,6.521,295.628z M-23.744,276.436c0.735-12.372,6.65-20.674,11.498-20.386
				l0.009-0.156c2.411-0.097,5.004-0.107,7.729,0.017c-0.563,0.693-1.107,1.441-1.626,2.244c-3.247,5.029-5.272,11.773-5.7,18.988
				c-0.428,7.215,0.784,14.151,3.413,19.529c0.425,0.869,0.881,1.683,1.364,2.445c-2.729-0.199-5.306-0.516-7.694-0.897l0.011-0.181
				C-19.588,297.751-24.479,288.808-23.744,276.436z M-30.316,294.298c-1.82-0.517-3.609-2.546-4.908-5.568
				c-1.557-3.622-2.257-8.272-1.97-13.094c0.594-10.003,5.219-17.246,9.165-17.734c0.121-0.015,0.241-0.036,0.36-0.063
				c0.535-0.121,1.21-0.265,2.008-0.419c-3.097,4.983-5.03,11.555-5.447,18.578c-0.418,7.035,0.728,13.8,3.223,19.12
				c-0.882-0.283-1.62-0.537-2.19-0.742C-30.154,294.347-30.234,294.321-30.316,294.298z M19.741,297.104
				c-0.165,0.037-0.392,0.087-0.677,0.147c-0.211,0.026-0.421,0.039-0.628,0.027c-1.897-0.113-3.825-1.895-5.289-4.889
				c-1.794-3.67-2.647-8.737-2.34-13.901c0.621-10.458,5.686-18,9.8-17.755c0.135,0.008,0.27,0.027,0.405,0.052
				c0.552,0.185,0.921,0.317,1.084,0.376c1.387,0.706,2.72,2.252,3.8,4.462c1.794,3.67,2.647,8.737,2.341,13.901
				C27.679,288.896,23.553,295.922,19.741,297.104z"/>
		</g>
		<path class="st2" d="M70.366,251.363c-2.328-4.763-5.673-7.795-9.555-8.726c-2.629-0.872-7.892-2.465-14.466-3.656
			c-0.653,1.539-1.404,2.981-2.249,4.29c-2.325,3.601-5.177,6-8.279,7.033c-0.008,0.003-0.016,0.005-0.023,0.008
			c-0.639,0.211-1.288,0.365-1.946,0.459c-1.054,0.22-2.591,0.515-4.499,0.817c-0.618,1.42-1.161,2.917-1.619,4.48
			c1.86,1.517,3.486,3.643,4.792,6.314c0.367,0.75,0.699,1.537,1.004,2.35c1.154-11.131,6.526-18.537,11.076-18.563
			c1.432,0.254,2.801,0.53,4.092,0.814c-0.8,0.871-1.56,1.858-2.27,2.958c-2.927,4.533-4.751,10.602-5.136,17.09
			c-0.385,6.488,0.707,12.731,3.077,17.578c0.579,1.185,1.222,2.262,1.919,3.227c-1.277,0.126-2.628,0.235-4.034,0.318
			c-2.516-0.228-5.028-2.776-6.748-6.909c-0.475,5.309-1.917,10.278-4.135,14.285c0.057,0.004,0.114,0.008,0.171,0.011
			c11.884,0.706,22.569-1.187,26.52-2.01c0.658-0.094,1.307-0.248,1.946-0.459c0.008-0.003,0.016-0.005,0.023-0.008
			c3.102-1.033,5.954-3.432,8.279-7.033c2.926-4.533,4.75-10.602,5.136-17.09C73.829,262.453,72.736,256.21,70.366,251.363z
			 M57.585,286.084c-0.165,0.037-0.392,0.087-0.677,0.147c-0.211,0.027-0.421,0.039-0.628,0.027
			c-1.897-0.113-3.825-1.895-5.289-4.889c-1.794-3.67-2.647-8.737-2.34-13.901c0.621-10.458,5.686-18,9.8-17.755
			c0.135,0.008,0.27,0.027,0.405,0.052c0.552,0.185,0.921,0.317,1.084,0.376c1.387,0.706,2.72,2.252,3.8,4.462
			c1.794,3.67,2.647,8.737,2.341,13.901C65.524,277.877,61.397,284.903,57.585,286.084z"/>
	</g>
	<g>
		<path class="st0" d="M98.085,289.561v-6.461l9.153-2.154v-58.152l-9.153-2.154v-5.923l19.922-0.539h12.384
			c7.035,0,12.653,1.58,16.853,4.738c4.2,3.16,6.3,7.861,6.3,14.107c0,9.261-4.668,15.077-14,17.446
			c5.6,1.292,9.781,3.446,12.546,6.461c2.763,3.016,4.146,6.714,4.146,11.092c0,14.36-9.154,21.538-27.461,21.538H98.085z
			 M118.008,222.794v23.691h8.077c5.024,0,8.974-1.023,11.846-3.069c2.871-2.046,4.308-5.008,4.308-8.884
			c0-3.948-1.149-6.892-3.446-8.831c-2.299-1.938-5.277-2.908-8.938-2.908H118.008z M118.008,254.562v26.384h11.307
			c10.409,0,15.615-4.128,15.615-12.385c0-5.169-1.562-8.793-4.685-10.876c-3.123-2.082-7.845-3.124-14.161-3.124H118.008z"/>
		<path class="st0" d="M163.237,235.717c7.753-2.871,14.86-4.308,21.322-4.308c6.316,0,11.162,1.275,14.538,3.823
			c3.373,2.549,5.061,6.838,5.061,12.869v32.845l8.615,2.154v5.923l-16.691,0.538l-2.262-7.538
			c-5.744,5.744-11.415,8.615-17.014,8.615s-9.8-1.4-12.6-4.2s-4.2-6.784-4.2-11.954c0-11.127,8.255-16.691,24.769-16.691h8.615
			v-8.615c0-6.461-3.411-9.692-10.23-9.692c-3.877,0-7.072,0.396-9.584,1.185l-1.293,0.431l-1.507,8.077h-7L163.237,235.717z
			 M193.389,264.793h-7.538c-5.385,0-9.207,0.7-11.469,2.1c-2.262,1.4-3.393,3.572-3.393,6.516c0,2.8,0.663,4.937,1.992,6.407
			c1.328,1.473,3.248,2.208,5.762,2.208c1.22,0,2.458-0.216,3.715-0.646c1.256-0.431,2.478-0.969,3.662-1.615s2.242-1.347,3.177-2.1
			c0.931-0.754,1.685-1.454,2.26-2.101l1.831-2.153V264.793z"/>
		<path class="st0" d="M228.924,217.302v15.723h15.615v8.077h-15.615v34.568c0,4.381,1.794,6.569,5.385,6.569
			c2.297,0,5.097-0.896,8.399-2.692l2.908,5.708c-4.884,3.591-9.908,5.385-15.077,5.385c-3.661,0-6.642-1.202-8.938-3.607
			c-2.299-2.405-3.446-6.408-3.446-12.008v-33.922h-10.77v-7l10.77-1.077v-13.569L228.924,217.302z"/>
		<path class="st0" d="M290.844,250.254h-7l-1.615-9.153c-2.8-0.717-6.03-1.077-9.691-1.077c-5.169,0-9.154,1.652-11.954,4.954
			c-2.8,3.303-4.199,8.437-4.199,15.4c0,6.964,1.471,12.313,4.415,16.045c2.942,3.734,7.035,5.601,12.276,5.601
			c1.508,0,2.997-0.144,4.469-0.431c1.471-0.286,2.871-0.663,4.2-1.131c1.327-0.467,2.53-0.986,3.607-1.562
			c1.077-0.574,1.938-1.147,2.585-1.724l1.83-1.615l3.77,6.462l-1.185,0.969c-0.861,0.719-2.046,1.526-3.554,2.423
			c-1.508,0.899-3.177,1.724-5.008,2.478c-1.83,0.754-3.769,1.399-5.815,1.938c-2.046,0.538-4.038,0.808-5.977,0.808
			c-8.76,0-15.437-2.602-20.03-7.808c-4.595-5.205-6.892-12.331-6.892-21.377c0-4.45,0.663-8.524,1.992-12.223
			c1.327-3.697,3.212-6.855,5.653-9.477c2.44-2.62,5.385-4.666,8.831-6.138c3.446-1.471,7.285-2.208,11.522-2.208
			c1.436,0,2.907,0.107,4.415,0.323c1.508,0.216,2.979,0.468,4.415,0.754c1.436,0.288,2.764,0.629,3.985,1.023
			c1.22,0.396,2.261,0.772,3.122,1.131l2.369,1.077L290.844,250.254z"/>
		<path class="st0" d="M313.996,206.641v32.522c6.102-5.169,12.204-7.753,18.308-7.753c6.102,0,10.589,1.706,13.461,5.115
			c2.871,3.411,4.308,8.167,4.308,14.269v30.153l8.076,2.692v5.923h-25.845v-5.923l7-2.585V251.87c0-3.877-0.719-6.731-2.154-8.562
			c-1.437-1.831-3.698-2.746-6.784-2.746c-1.508,0-2.98,0.199-4.415,0.592c-1.438,0.396-2.8,0.916-4.093,1.562
			c-1.292,0.646-2.441,1.346-3.445,2.1c-1.007,0.754-1.831,1.491-2.478,2.208l-1.938,2.154v31.769l7,2.692v5.923h-26.922v-5.923
			l9.153-2.692v-65.69l-9.153-2.154v-5.923L313.996,206.641z"/>
	</g>
</g>
</svg>
